<svg xmlns="http://www.w3.org/2000/svg" width="34" height="34" viewBox="0 0 34 34">
  <g id="Group_6738" data-name="Group 6738" transform="translate(-236.526 -476)">
    <path id="Path_8726" data-name="Path 8726" d="M0,0H34V34H0Z" transform="translate(236.526 476)" fill="rgba(255,255,255,0)"/>
    <path id="Union_3" data-name="Union 3" d="M-6373.456,24a1.094,1.094,0,0,1-1.091-1.091V18.545a1.094,1.094,0,0,1,1.091-1.091h4.364A1.094,1.094,0,0,1-6368,18.545v4.364A1.094,1.094,0,0,1-6369.092,24Zm-8.727,0a1.094,1.094,0,0,1-1.091-1.091V18.545a1.094,1.094,0,0,1,1.091-1.091h4.363a1.094,1.094,0,0,1,1.091,1.091v4.364A1.094,1.094,0,0,1-6377.819,24Zm-8.727,0A1.1,1.1,0,0,1-6392,22.909V18.545a1.094,1.094,0,0,1,1.092-1.091h4.363a1.094,1.094,0,0,1,1.091,1.091v4.364A1.094,1.094,0,0,1-6386.545,24Zm17.453-8.728a1.094,1.094,0,0,1-1.091-1.091V9.818a1.094,1.094,0,0,1,1.091-1.091h4.364A1.094,1.094,0,0,1-6368,9.818v4.364a1.094,1.094,0,0,1-1.091,1.091Zm-8.727,0a1.094,1.094,0,0,1-1.091-1.091V9.818a1.094,1.094,0,0,1,1.091-1.091h4.363a1.094,1.094,0,0,1,1.091,1.091v4.364a1.094,1.094,0,0,1-1.091,1.091Zm-8.727,0A1.1,1.1,0,0,1-6392,14.181V9.818a1.1,1.1,0,0,1,1.092-1.091h4.363a1.094,1.094,0,0,1,1.091,1.091v4.364a1.094,1.094,0,0,1-1.091,1.091Zm17.453-8.727a1.094,1.094,0,0,1-1.091-1.091V1.091A1.094,1.094,0,0,1-6373.456,0h4.364A1.094,1.094,0,0,1-6368,1.091V5.455a1.094,1.094,0,0,1-1.091,1.091Zm-8.727,0a1.094,1.094,0,0,1-1.091-1.091V1.091A1.094,1.094,0,0,1-6382.182,0h4.363a1.094,1.094,0,0,1,1.091,1.091V5.455a1.094,1.094,0,0,1-1.091,1.091Zm-8.727,0A1.094,1.094,0,0,1-6392,5.455V1.091A1.1,1.1,0,0,1-6390.909,0h4.363a1.094,1.094,0,0,1,1.091,1.091V5.455a1.094,1.094,0,0,1-1.091,1.091Z" transform="translate(6633.527 481)" fill="#8a8eb1"/>
  </g>
</svg>
