<svg xmlns="http://www.w3.org/2000/svg" width="51.84" height="51.84" viewBox="0 0 51.84 51.84">
  <g id="ic_bottomwear" transform="translate(0.08 -0.16)">
    <path id="Path_8726" data-name="Path 8726" d="M0,0H51.84V51.84H0Z" transform="translate(-0.08 0.16)" fill="rgba(255,255,255,0)"/>
    <g id="noun-earrings-2109610" transform="translate(-98.024 -12.309)">
      <path id="Path_9314" data-name="Path 9314" d="M118.073,24.722a5.609,5.609,0,0,0-4.126-5.364V17.845a1.375,1.375,0,0,0-2.751,0v1.513a5.61,5.61,0,0,0-4.126,5.364,6.541,6.541,0,0,0,.963,3.163c-2.063,4.676-5.089,12.516-5.089,18.843,0,3.438,0,13.754,9.627,13.754S122.2,50.167,122.2,46.728c0-6.327-3.026-14.166-5.089-18.843a6.539,6.539,0,0,0,.963-3.163Zm-5.5-2.751a2.751,2.751,0,1,1-2.751,2.751A2.759,2.759,0,0,1,112.571,21.971Zm6.877,24.756c0,9.078-3.026,11-6.877,11s-6.877-1.926-6.877-11c0-5.5,2.476-12.516,4.539-17.054a5.243,5.243,0,0,0,4.676,0c2.063,4.539,4.539,11.554,4.539,17.055Z" transform="translate(0 0)" fill="#8a8eb1"/>
      <path id="Path_9315" data-name="Path 9315" d="M159.5,196a9.963,9.963,0,0,1-3.3,0c-1.788,4.264-3.851,10.59-3.851,15.266,0,2.338.138,1.788.825,6.051,1.1,3.576,3.3,3.576,4.676,3.576a4.24,4.24,0,0,0,4.4-2.476c.688-3.576,1.1-3.026,1.1-7.152,0-4.676-2.063-11-3.851-15.266Z" transform="translate(-45.281 -164.536)" fill="#8a8eb1"/>
      <path id="Path_9316" data-name="Path 9316" d="M380.637,27.892a6.54,6.54,0,0,0,.963-3.163,5.609,5.609,0,0,0-4.126-5.364V17.852a1.375,1.375,0,0,0-2.75,0v1.513a5.488,5.488,0,0,0-4.126,5.364,6.541,6.541,0,0,0,.963,3.163c-2.063,4.676-5.089,12.516-5.089,18.843,0,3.438,0,13.754,9.627,13.754s9.627-10.315,9.627-13.754c0-6.327-3.025-14.166-5.089-18.843ZM376.1,21.978a2.751,2.751,0,1,1-2.751,2.751A2.759,2.759,0,0,1,376.1,21.978Zm0,35.76c-3.851,0-6.877-1.926-6.877-11,0-5.5,2.476-12.516,4.539-17.054a5.242,5.242,0,0,0,4.676,0c2.063,4.539,4.539,11.553,4.539,17.054,0,9.078-3.026,11-6.877,11Z" transform="translate(-241.522 -0.006)" fill="#8a8eb1"/>
      <path id="Path_9317" data-name="Path 9317" d="M423.033,196a9.963,9.963,0,0,1-3.3,0c-1.788,4.264-3.851,10.59-3.851,15.266,0,2.338.138,1.788.825,6.051,1.1,3.576,3.3,3.576,4.676,3.576a4.24,4.24,0,0,0,4.4-2.476c.688-3.576,1.1-3.026,1.1-7.152,0-4.539-2.2-11.14-3.851-15.266Z" transform="translate(-286.806 -164.536)" fill="#8a8eb1"/>
    </g>
  </g>
</svg>
