<svg width="52" height="52" viewBox="0 0 52 52" fill="none" xmlns="http://www.w3.org/2000/svg">
<g clip-path="url(#clip0_2_9)">
<path fill-rule="evenodd" clip-rule="evenodd" d="M15.3803 22.2156C15.5068 15.2951 20.3496 9.70965 26.2828 9.70965C32.216 9.70965 37.0588 15.2951 37.1852 22.2156H38.4256C38.4414 21.9391 38.4493 21.6547 38.4493 21.3782C38.4493 13.4466 32.9902 7 26.2907 7C19.5912 7 14.1322 13.4466 14.1322 21.3782C14.1322 21.6547 14.1401 21.9391 14.1559 22.2156H15.3803ZM35.6921 22.7054C35.8817 22.982 36.0002 23.2901 36.0476 23.6219L36.2685 24.9176L36.3238 25.281L36.4186 25.9288H32.3264C32.1604 25.9288 32.0261 26.0473 32.0103 26.2132C31.8129 28.3621 31.2124 30.3134 30.2802 31.854C29.3954 33.3076 28.2973 34.2556 27.0964 34.5953C26.3775 34.8007 25.6349 34.7691 24.9318 34.5242C23.8178 34.1371 22.7987 33.2127 21.9771 31.8539C21.0449 30.3213 20.4445 28.3699 20.247 26.2132C20.2312 26.0552 20.0969 25.9288 19.931 25.9288H16.1942L16.289 25.281L16.3443 24.9176L16.5339 23.6219C16.5892 23.2901 16.7077 22.9819 16.8894 22.7054C16.9685 22.5869 17.0554 22.4842 17.1502 22.3815C17.1897 22.342 17.2371 22.2946 17.2845 22.2551L17.3082 22.2393C17.3292 22.2183 17.3573 22.1972 17.3854 22.1761C17.3995 22.1656 17.4135 22.1551 17.4267 22.1445C17.4602 22.1277 17.4898 22.107 17.5211 22.0851C17.534 22.0761 17.5471 22.0668 17.561 22.0576C17.5914 22.0374 17.6218 22.0203 17.6501 22.0045C17.6659 21.9956 17.6811 21.9871 17.6953 21.9786L17.6954 21.9785C17.7823 21.9312 17.8691 21.8838 17.9639 21.8522C18.0271 21.8285 18.0903 21.8048 18.1535 21.789L18.2483 21.7653C18.3115 21.7495 18.3826 21.7337 18.4458 21.7258C18.5485 21.71 18.6512 21.7021 18.7539 21.7021H33.8276C33.9303 21.7021 34.033 21.71 34.1357 21.7258C34.1989 21.7337 34.27 21.7495 34.3332 21.7653L34.428 21.789C34.4912 21.8048 34.5544 21.8285 34.6176 21.8522C34.6288 21.8573 34.64 21.8623 34.6514 21.8674C34.6609 21.8717 34.6705 21.8759 34.6801 21.8802L34.6802 21.8802C34.7488 21.9108 34.8198 21.9424 34.8863 21.9786C34.9004 21.9871 34.9156 21.9956 34.9315 22.0045C34.9598 22.0204 34.9902 22.0374 35.0206 22.0576C35.068 22.0813 35.1154 22.1129 35.1549 22.1445L35.2734 22.2393L35.2971 22.2551C35.3445 22.2946 35.3919 22.342 35.4314 22.3815C35.5262 22.4763 35.6131 22.5869 35.6921 22.7054ZM15.1355 28.6224L15.491 26.2049L15.6411 25.1937L15.6964 24.8303L15.886 23.5346C15.9176 23.2976 15.9887 23.0685 16.0756 22.8473H10.3006C9.34469 22.8473 8.44405 23.2581 7.81204 23.9771C7.18002 24.696 6.90353 25.652 7.02993 26.592L7.73305 31.7114H14.6694L15.1355 28.6224ZM7.82796 32.3517L9.1947 42.2349C9.2184 42.385 9.2421 42.5272 9.2816 42.6694C9.3053 42.7642 9.3369 42.859 9.3764 42.9459C9.408 43.0328 9.4475 43.1277 9.4949 43.2067C9.5976 43.42 9.72401 43.6175 9.87411 43.8071C9.96101 43.9177 10.0558 44.0204 10.1585 44.1152C10.1743 44.131 10.1921 44.1468 10.2099 44.1626C10.2276 44.1784 10.2454 44.1942 10.2612 44.21C10.3323 44.2732 10.4034 44.3285 10.4824 44.3838C10.5614 44.4391 10.6404 44.4944 10.7194 44.5418C10.7984 44.5892 10.8853 44.6366 10.9722 44.6761C11.4146 44.8894 11.8807 45 12.3785 45H12.7182L14.5905 32.3438H7.82798L7.82796 32.3517ZM36.49 26.5761L36.806 28.717L37.3114 32.0746L39.2232 44.9995H13.3504L15.2701 32.0825L15.7678 28.717L16.0838 26.576H19.631C19.8601 28.7091 20.4763 30.6525 21.4164 32.201C22.3171 33.6863 23.4547 34.6975 24.7029 35.1399C25.1611 35.3058 25.6351 35.3848 26.1091 35.3848C26.4884 35.3848 26.8755 35.3295 27.2468 35.2268C28.6056 34.8476 29.838 33.7968 30.8019 32.201C31.7342 30.6526 32.3503 28.7091 32.5873 26.5761H36.49ZM42.2652 22.8476H36.4823C36.5692 23.0688 36.6403 23.2979 36.6719 23.5349L36.8615 24.8306L36.9168 25.194L37.0669 26.2052L37.4224 28.6227L37.8806 31.7196H44.817L45.5201 26.6002C45.6544 25.6522 45.3621 24.7042 44.738 23.9853C44.1139 23.2664 43.2211 22.8477 42.2652 22.8477L42.2652 22.8476ZM40.1953 44.9999H39.8556L37.9911 32.3516H44.7458L43.3791 42.2348C43.3633 42.377 43.3317 42.5271 43.2922 42.6694L43.2921 42.6695C43.2605 42.7642 43.2289 42.859 43.1974 42.9459L43.0789 43.2066C42.9762 43.4199 42.8498 43.6253 42.6997 43.807C42.6128 43.9097 42.5179 44.0203 42.4152 44.1151C42.3836 44.1467 42.352 44.1783 42.3125 44.2099C42.2414 44.2731 42.1703 44.3284 42.0913 44.3837L42.0912 44.3838C42.0122 44.4391 41.9333 44.4943 41.8543 44.5417C41.8314 44.5542 41.809 44.5667 41.7869 44.579C41.7252 44.6135 41.6655 44.6469 41.6015 44.676C41.1591 44.8893 40.6851 44.9999 40.1953 44.9999Z" fill="#8A8EB1"/>
</g>
<defs>
<clipPath id="clip0_2_9">
<rect width="51.84" height="51.84" fill="white"/>
</clipPath>
</defs>
</svg>
