<svg xmlns="http://www.w3.org/2000/svg" width="51.84" height="51.84" viewBox="0 0 51.84 51.84">
  <g id="ic_tops" transform="translate(0.082 -0.2)">
    <path id="Path_8726" data-name="Path 8726" d="M0,0H51.84V51.84H0Z" transform="translate(-0.082 0.2)" fill="rgba(255,255,255,0)"/>
    <path id="Path_9352" data-name="Path 9352" d="M137.554,92.394a33.6,33.6,0,0,0-7.138.808c-.813,0-1.28,6.4-1.814,6.747-.493.255-1.335.791-2.374,1.464a11.237,11.237,0,0,0,.119,2.827,11.393,11.393,0,0,0,22.584-2.777c-1.083-.691-1.966-1.254-2.492-1.514-.51-.344-1.127-6.747-1.916-6.747a31.3,31.3,0,0,0-6.969-.808ZM124.04,102.842c-2.858,1.888-6.336,4.22-9.24,5.957,1.982,26.576,43.576,26.576,45.557,0-2.886-1.725-6.35-4.04-9.223-5.923a13.526,13.526,0,0,1-11.275,12.737l1.865,1.834a1.621,1.621,0,0,1,0,2.271l-3,2.978a1.653,1.653,0,0,1-2.289,0l-3-2.978a1.621,1.621,0,0,1,0-2.271l1.848-1.834a13.534,13.534,0,0,1-11.072-11.021,12.975,12.975,0,0,1-.169-1.75Zm13.53,13.545-2.2,2.2,2.2,2.188,2.221-2.188Z" transform="translate(-111.882 -84.192)" fill="#fff"/>
  </g>
</svg>
