<svg xmlns="http://www.w3.org/2000/svg" width="34" height="34" viewBox="0 0 34 34">
  <g id="Group_6738" data-name="Group 6738" transform="translate(-236.526 -476)">
    <path id="Path_8726" data-name="Path 8726" d="M0,0H34V34H0Z" transform="translate(236.526 476)" fill="rgba(255,255,255,0)"/>
    <path id="noun-sneakers-2495853" d="M121.09,169.458,120,169a50.4,50.4,0,0,1-10-5.563.679.679,0,0,0-.95.176,4.462,4.462,0,0,1-1.791,1.126l4.776,3.446h0a.678.678,0,0,1,.163.95.691.691,0,0,1-.556.285.706.706,0,0,1-.393-.122l-5.7-4.07a11.3,11.3,0,0,1-2.049.122,10.12,10.12,0,0,1-4.464-1.153,7.667,7.667,0,0,0-3.514-.882h-.163a.665.665,0,0,0-.678.461,27.354,27.354,0,0,0-1.357,7v1.357h22.386a.678.678,0,1,1,0,1.357h-22.2a21.86,21.86,0,0,0,.515,2.876.665.665,0,0,0,.651.516h19.672a63.068,63.068,0,0,0,7.041-.529,2.021,2.021,0,0,0,1.777-2.021v-1.75a3.365,3.365,0,0,0-2.089-3.12Z" transform="translate(145.194 322.689)" fill="#4ea3c5"/>
  </g>
</svg>
