<svg width="52" height="52" viewBox="0 0 52 52" fill="none" xmlns="http://www.w3.org/2000/svg">
<g clip-path="url(#clip0_9_30)">
<path fill-rule="evenodd" clip-rule="evenodd" d="M36.1959 33.7793H15.8037L15.8041 33.7787C14.2635 33.7787 13.0099 32.5251 13.0099 30.9849V6.02597C20.1163 8.16438 27.9566 8.3515 36.3619 6.60005L36.2076 7.57092L35.6514 7.48265C35.5456 7.46551 35.4435 7.49141 35.3592 7.55268C35.275 7.6136 35.2181 7.70587 35.2024 7.80836L34.5025 12.214C34.4861 12.3165 34.5109 12.4219 34.5718 12.5057C34.6331 12.59 34.725 12.6465 34.8282 12.6629L36.7164 12.9627C36.7368 12.966 36.7576 12.9675 36.7781 12.9675C36.9677 12.9675 37.134 12.83 37.1647 12.637L37.8642 8.23144C37.8985 8.01734 37.7523 7.81638 37.5389 7.78246L36.9823 7.69419L37.1829 6.42893C37.7824 6.29543 38.385 6.15318 38.9901 6V30.9851C38.9901 32.5257 37.7365 33.7793 36.1959 33.7793ZM35.9503 27.1179V22.0631H35.9503C35.9503 21.8468 35.7748 21.671 35.5582 21.671H29.1856C28.9694 21.671 28.7936 21.8465 28.7936 22.0631V27.1179C28.7936 28.7636 30.1325 30.1025 31.7781 30.1025H32.9657C34.6114 30.1025 35.9503 28.7636 35.9503 27.1179ZM35.5582 14.6613H16.4405V15.4455H35.5582V14.6613ZM16.7589 17.2104C16.5426 17.2104 16.3668 17.3859 16.3668 17.6025L16.3668 22.0631C16.3668 22.2794 16.5422 22.4552 16.7589 22.4552H18.6708C18.8871 22.4552 19.0629 22.2798 19.0629 22.0631V17.6025C19.0629 17.3862 18.8875 17.2104 18.6708 17.2104H18.107V15.691H17.3228V17.2104H16.7589ZM39.7739 16.9604V11.0799H39.7744C41.6097 14.2872 46 22.7352 46 30.1443C46 39.8983 34.3511 45.8876 26 45.8876C17.6489 45.8876 6 39.8978 6 30.1443C6 22.7344 10.3903 14.287 12.2248 11.0799V16.9604C10.5675 20.4907 8.61186 25.6162 8.61186 30.1443C8.61186 37.7815 19.0775 42.8483 25.9993 42.8483C32.9209 42.8483 43.3868 37.781 43.3868 30.1443C43.3868 25.6158 41.4312 20.4903 39.7739 16.9604Z" fill="#8A8EB1"/>
</g>
<defs>
<clipPath id="clip0_9_30">
<rect width="51.84" height="51.84" fill="white"/>
</clipPath>
</defs>
</svg>
