<svg width="52" height="52" viewBox="0 0 52 52" fill="none" xmlns="http://www.w3.org/2000/svg">
<g clip-path="url(#clip0_9_45)">
<path fill-rule="evenodd" clip-rule="evenodd" d="M19.789 23.5239V12.4028C23.7184 10.5324 28.4912 10.5324 32.4206 12.4028V23.5239C32.4206 26.5895 29.5873 29.0844 26.1048 29.0844C22.6223 29.0844 19.789 26.5898 19.789 23.5239ZM22.9469 23.524C22.9469 25.2767 24.3634 26.7017 26.1048 26.7017C27.8462 26.7017 29.2627 25.2767 29.2627 23.524C29.2627 21.7713 27.8462 20.3464 26.1048 20.3464C24.3634 20.3464 22.9469 21.7717 22.9469 23.524ZM33.9995 13.9916H44.6091H44.6096C46.5949 13.9916 48.2101 15.6167 48.2101 17.6144V37.3773C48.2101 39.3749 46.5949 41 44.61 41H7.60053C5.61521 41 4 39.375 4 37.3773V17.6144C4 15.6168 5.61521 13.9916 7.60053 13.9916H18.2101V23.5239C18.2101 27.4663 21.7522 30.6732 26.1048 30.6732C30.4574 30.6732 33.9995 27.4663 33.9995 23.5239V13.9916Z" fill="#8A8EB1"/>
</g>
<defs>
<clipPath id="clip0_9_45">
<rect width="51.84" height="51.84" fill="white"/>
</clipPath>
</defs>
</svg>
