<svg xmlns="http://www.w3.org/2000/svg" width="17" height="17" viewBox="0 0 17 17">
  <g id="filter" transform="translate(-8.12 1)">
    <g id="Group_4204" data-name="Group 4204" transform="translate(10.118)">
      <g id="Group_7347" data-name="Group 7347" transform="translate(0 -1)">
        <path id="Path_8595" data-name="Path 8595" d="M21.952,0H10.336a.216.216,0,0,0-.174.348l4.257,5.966a1.554,1.554,0,0,1,.3.918v5.206c.016.174.158.285.3.222l2.421-.918a.191.191,0,0,0,.127-.19V7.232a1.591,1.591,0,0,1,.3-.918L22.126.348A.216.216,0,0,0,21.952,0Z" transform="translate(-10.116 2)" fill="#8a8eb1"/>
        <rect id="Rectangle_3234" data-name="Rectangle 3234" width="17" height="17" transform="translate(-1.998)" fill="none"/>
      </g>
    </g>
  </g>
</svg>
